<svg width="354" height="146" viewBox="0 0 354 146" fill="none" xmlns="http://www.w3.org/2000/svg">
<path fill-rule="evenodd" clip-rule="evenodd" d="M353.867 97H13.125L0 146H340.738L353.867 97ZM35.3941 129.66C36.1483 129.887 37.0157 130 37.9962 130C38.7052 130 39.3614 129.97 39.9648 129.909C40.5832 129.864 41.1565 129.796 41.6844 129.706C42.2275 129.615 42.7102 129.51 43.1326 129.389V127.238C42.6951 127.299 42.1143 127.359 41.3903 127.419C40.6662 127.465 39.7385 127.487 38.6071 127.487C37.868 127.487 37.2495 127.404 36.7517 127.238C36.269 127.072 35.8843 126.778 35.5977 126.356C35.3262 125.918 35.1225 125.307 34.9868 124.522C34.8661 123.737 34.8058 122.726 34.8058 121.489C34.8058 120.236 34.8736 119.217 35.0094 118.433C35.1452 117.648 35.3639 117.044 35.6656 116.622C35.9673 116.199 36.3595 115.913 36.8422 115.762C37.34 115.596 37.9359 115.513 38.6298 115.513C39.2633 115.513 39.8742 115.535 40.4626 115.581C41.0509 115.611 41.5788 115.656 42.0465 115.716C42.5141 115.762 42.8761 115.814 43.1326 115.875V113.724C42.7404 113.604 42.2727 113.49 41.7297 113.385C41.2017 113.279 40.6209 113.189 39.9874 113.113C39.3689 113.038 38.7278 113 38.0641 113C37.0987 113 36.2388 113.121 35.4846 113.362C34.7303 113.604 34.0892 114.034 33.5613 114.652C33.0484 115.271 32.6562 116.131 32.3847 117.233C32.1282 118.335 32 119.738 32 121.443C32 123.254 32.1282 124.718 32.3847 125.835C32.6411 126.952 33.0182 127.812 33.516 128.415C34.0289 129.019 34.6549 129.434 35.3941 129.66ZM58.2924 129.751C59.0768 129.902 59.9291 129.977 60.8493 129.977C61.7845 129.977 62.6368 129.902 63.4061 129.751C64.1905 129.585 64.8694 129.306 65.4426 128.913C66.0158 128.506 66.4533 127.955 66.755 127.261C67.0717 126.552 67.2301 125.646 67.2301 124.545V113.158H64.447V124.545C64.447 125.269 64.3037 125.85 64.0171 126.288C63.7305 126.71 63.3156 127.012 62.7726 127.193C62.2446 127.374 61.6035 127.465 60.8493 127.465C60.095 127.465 59.4464 127.374 58.9033 127.193C58.3754 127.012 57.9681 126.71 57.6815 126.288C57.3949 125.85 57.2515 125.269 57.2515 124.545V113.158H54.4684V124.545C54.4684 125.646 54.6193 126.552 54.921 127.261C55.2377 127.955 55.6827 128.506 56.256 128.913C56.8292 129.306 57.508 129.585 58.2924 129.751ZM84.1018 130C83.6946 130 83.2571 129.985 82.7895 129.955C82.3369 129.94 81.8693 129.909 81.3866 129.864C80.919 129.804 80.474 129.751 80.0516 129.706C79.6292 129.645 79.2521 129.577 78.9202 129.502V127.306C79.3426 127.336 79.8329 127.367 80.391 127.397C80.9642 127.427 81.5601 127.45 82.1785 127.465C82.797 127.48 83.3929 127.487 83.9661 127.487C84.5695 127.487 85.105 127.435 85.5726 127.329C86.0402 127.208 86.4023 127.004 86.6587 126.718C86.9152 126.431 87.0434 126.024 87.0434 125.495V124.703C87.0434 124.115 86.8774 123.662 86.5456 123.345C86.2137 123.028 85.7235 122.87 85.0748 122.87H83.5135C81.99 122.87 80.8134 122.538 79.9837 121.874C79.1691 121.209 78.7618 120.07 78.7618 118.455V117.595C78.7618 115.98 79.2068 114.818 80.0968 114.109C81.0019 113.385 82.2917 113.023 83.9661 113.023C84.5393 113.023 85.1276 113.053 85.731 113.113C86.3495 113.158 86.9378 113.219 87.4959 113.294C88.0541 113.37 88.5292 113.453 88.9214 113.543V115.739C88.2577 115.694 87.4959 115.648 86.6361 115.603C85.7913 115.558 85.0069 115.535 84.2829 115.535C83.7096 115.535 83.2043 115.596 82.7668 115.716C82.3294 115.837 81.9975 116.056 81.7712 116.373C81.545 116.675 81.4318 117.127 81.4318 117.731V118.274C81.4318 118.984 81.6204 119.482 81.9975 119.768C82.3897 120.055 82.9479 120.198 83.6719 120.198H85.4142C86.3947 120.198 87.2018 120.379 87.8353 120.742C88.4689 121.104 88.9365 121.602 89.2382 122.236C89.555 122.854 89.7134 123.564 89.7134 124.364V125.427C89.7134 126.665 89.472 127.616 88.9893 128.28C88.5066 128.944 87.8429 129.396 86.9981 129.638C86.1534 129.879 85.188 130 84.1018 130ZM105.054 115.671V129.864H107.859V115.671H112.634V113.158H100.257V115.671H105.054ZM129.79 130C128.674 130 127.693 129.894 126.849 129.683C126.019 129.457 125.317 129.057 124.744 128.483C124.186 127.895 123.764 127.042 123.477 125.925C123.206 124.809 123.07 123.352 123.07 121.557C123.07 119.746 123.213 118.282 123.5 117.165C123.786 116.033 124.209 115.173 124.767 114.585C125.34 113.981 126.042 113.566 126.871 113.34C127.716 113.113 128.689 113 129.79 113C130.921 113 131.91 113.113 132.754 113.34C133.599 113.566 134.3 113.981 134.859 114.585C135.417 115.173 135.832 116.033 136.103 117.165C136.39 118.282 136.533 119.746 136.533 121.557C136.533 123.352 136.39 124.809 136.103 125.925C135.832 127.042 135.409 127.895 134.836 128.483C134.278 129.057 133.576 129.457 132.732 129.683C131.902 129.894 130.921 130 129.79 130ZM129.79 127.487C130.529 127.487 131.148 127.412 131.646 127.261C132.158 127.095 132.566 126.808 132.867 126.401C133.169 125.978 133.388 125.382 133.524 124.613C133.659 123.828 133.727 122.809 133.727 121.557C133.727 120.229 133.652 119.172 133.501 118.387C133.365 117.588 133.146 116.984 132.845 116.577C132.543 116.154 132.143 115.875 131.646 115.739C131.148 115.588 130.529 115.513 129.79 115.513C129.096 115.513 128.5 115.588 128.003 115.739C127.505 115.875 127.097 116.154 126.781 116.577C126.479 116.984 126.253 117.588 126.102 118.387C125.951 119.172 125.876 120.229 125.876 121.557C125.876 122.809 125.936 123.828 126.057 124.613C126.192 125.382 126.411 125.978 126.713 126.401C127.015 126.808 127.414 127.095 127.912 127.261C128.425 127.412 129.051 127.487 129.79 127.487ZM149.312 113.158L147.389 129.864H150.082L151.415 117.985L154.743 129.864H157.368L160.674 117.916L162.074 129.864H164.789L162.821 113.158H160.106L156.078 126.537L152.028 113.158H149.312ZM196.262 129.977C195.206 129.977 194.339 129.789 193.66 129.411C192.996 129.034 192.468 128.483 192.076 127.759C191.699 127.035 191.427 126.144 191.262 125.088C191.111 124.032 191.035 122.832 191.035 121.489C191.035 120.115 191.118 118.901 191.284 117.844C191.465 116.788 191.774 115.905 192.212 115.196C192.649 114.471 193.253 113.928 194.022 113.566C194.806 113.189 195.81 113 197.031 113C197.725 113 198.389 113.03 199.023 113.091C199.656 113.136 200.267 113.211 200.855 113.317C201.444 113.423 202.017 113.543 202.575 113.679V115.83C202.258 115.784 201.828 115.739 201.285 115.694C200.757 115.648 200.169 115.611 199.52 115.581C198.872 115.535 198.201 115.513 197.507 115.513C196.511 115.513 195.749 115.709 195.221 116.101C194.693 116.478 194.331 117.105 194.135 117.98C193.939 118.855 193.841 120.032 193.841 121.511C193.841 122.673 193.894 123.639 193.999 124.409C194.105 125.163 194.279 125.767 194.52 126.22C194.776 126.657 195.116 126.967 195.538 127.148C195.976 127.314 196.504 127.397 197.122 127.397C197.786 127.397 198.427 127.336 199.045 127.216C199.679 127.08 200.207 126.937 200.629 126.786V122.937H197.258V120.764C197.559 120.719 197.921 120.681 198.344 120.651C198.781 120.621 199.234 120.598 199.701 120.583C200.169 120.553 200.629 120.538 201.082 120.538C201.534 120.538 201.942 120.545 202.304 120.561C202.681 120.561 203.02 120.576 203.322 120.606V129.864H201.217L200.833 128.71C200.365 128.981 199.724 129.261 198.91 129.547C198.095 129.834 197.212 129.977 196.262 129.977ZM223.395 113.158H219.865L214.435 129.864H217.308L218.576 125.903H224.617L225.907 129.864H228.826L223.395 113.158ZM221.585 115.558L223.938 123.39H219.232L221.585 115.558ZM239.928 113.158H246.716C247.335 113.158 247.915 113.234 248.458 113.385C249.017 113.521 249.507 113.777 249.929 114.154C250.367 114.532 250.706 115.06 250.947 115.739C251.204 116.403 251.332 117.271 251.332 118.342C251.332 119.172 251.249 119.866 251.083 120.425C250.917 120.968 250.699 121.413 250.427 121.76C250.155 122.107 249.846 122.379 249.499 122.575C249.167 122.756 248.836 122.907 248.504 123.028L251.717 129.864H248.888L245.992 123.435H245.245H244.386C244.084 123.42 243.79 123.413 243.503 123.413C243.216 123.398 242.952 123.39 242.711 123.39V129.864H239.928V113.158ZM242.711 121.194H246.241C246.573 121.194 246.874 121.157 247.146 121.081C247.418 120.991 247.659 120.84 247.87 120.628C248.081 120.417 248.24 120.13 248.345 119.768C248.466 119.406 248.526 118.938 248.526 118.365C248.526 117.806 248.466 117.354 248.345 117.007C248.24 116.644 248.081 116.373 247.87 116.192C247.659 115.996 247.41 115.86 247.123 115.784C246.852 115.709 246.558 115.671 246.241 115.671H242.711V121.194ZM270.93 113.158H267.4L261.969 129.864H264.843L266.11 125.903H272.152L273.441 129.864H276.36L270.93 113.158ZM269.12 115.558L271.473 123.39H266.766L269.12 115.558ZM292.039 129.977C290.983 129.977 290.115 129.789 289.437 129.411C288.773 129.034 288.245 128.483 287.853 127.759C287.475 127.035 287.204 126.144 287.038 125.088C286.887 124.032 286.812 122.832 286.812 121.489C286.812 120.115 286.895 118.901 287.061 117.844C287.242 116.788 287.551 115.905 287.988 115.196C288.426 114.471 289.029 113.928 289.799 113.566C290.583 113.189 291.586 113 292.808 113C293.502 113 294.166 113.03 294.799 113.091C295.433 113.136 296.044 113.211 296.632 113.317C297.22 113.423 297.793 113.543 298.352 113.679V115.83C298.035 115.784 297.605 115.739 297.062 115.694C296.534 115.648 295.946 115.611 295.297 115.581C294.648 115.535 293.977 115.513 293.283 115.513C292.288 115.513 291.526 115.709 290.998 116.101C290.47 116.478 290.108 117.105 289.912 117.98C289.716 118.855 289.618 120.032 289.618 121.511C289.618 122.673 289.67 123.639 289.776 124.409C289.882 125.163 290.055 125.767 290.296 126.22C290.553 126.657 290.892 126.967 291.315 127.148C291.752 127.314 292.28 127.397 292.898 127.397C293.562 127.397 294.203 127.336 294.822 127.216C295.455 127.08 295.983 126.937 296.406 126.786V122.937H293.034V120.764C293.336 120.719 293.698 120.681 294.12 120.651C294.558 120.621 295.01 120.598 295.478 120.583C295.946 120.553 296.406 120.538 296.858 120.538C297.311 120.538 297.718 120.545 298.08 120.561C298.457 120.561 298.797 120.576 299.098 120.606V129.864H296.994L296.609 128.71C296.142 128.981 295.501 129.261 294.686 129.547C293.871 129.834 292.989 129.977 292.039 129.977ZM313.899 129.864C314.352 129.94 314.759 129.977 315.121 129.977C315.861 129.962 316.63 129.94 317.429 129.909C318.244 129.894 319.043 129.872 319.828 129.842C320.612 129.796 321.336 129.743 322 129.683V127.352H315.664C315.393 127.352 315.129 127.306 314.872 127.216C314.631 127.125 314.427 126.959 314.262 126.718C314.111 126.476 314.035 126.129 314.035 125.676V122.802L320.982 122.643V120.447L314.035 120.289V117.324C314.035 116.78 314.179 116.38 314.465 116.124C314.767 115.867 315.174 115.739 315.687 115.739H322V113.407C321.397 113.362 320.74 113.324 320.031 113.294C319.338 113.264 318.568 113.234 317.723 113.204C316.879 113.174 315.928 113.158 314.872 113.158C314.45 113.158 314.02 113.219 313.583 113.34C313.16 113.445 312.768 113.634 312.406 113.905C312.059 114.177 311.78 114.554 311.569 115.037C311.358 115.505 311.252 116.094 311.252 116.803V126.446C311.252 127.261 311.38 127.902 311.637 128.37C311.893 128.838 312.225 129.193 312.632 129.434C313.04 129.66 313.462 129.804 313.899 129.864Z" fill="#062636"/>
<path d="M181 89V20.48C181 16.56 181.6 13.28 182.8 10.64C184 8.00002 185.6 5.92002 187.6 4.40002C189.6 2.88002 191.8 1.80002 194.2 1.16002C196.6 0.52002 198.961 8.80477e-06 201.281 8.80477e-06C204.161 8.80477e-06 207.18 -5.23359e-07 211.5 4.1407e-06C215.82 4.1407e-06 220 1.69073e-05 225 4.1407e-06C230 -4.39021e-06 229.601 3.079e-06 234 2.02101e-06L229.449 17H205.5C203.02 17 201.059 17.32 199.779 18.68C198.579 19.96 197.979 21.68 197.979 23.84V39H223.424L218.871 56H197.979V89L181 89Z" fill="#062636"/>
<path d="M141 89C136.44 89 132.56 88.32 129.36 86.96C126.24 85.52 123.88 83.28 122.28 80.24C120.76 77.12 120 73.04 120 68V0H137V64.2009C137 66.1209 137.32 67.6809 137.96 68.8809C138.68 70.0809 139.64 70.9209 140.84 71.4009C142.04 71.8009 143.4 72.0009 144.92 72.0009L159.24 72H173V89H141Z" fill="#062636"/>
</svg>
